<svg xmlns="http://www.w3.org/2000/svg" width="512" height="512" viewBox="0 0 512 512">
  <title>DreamSeedAI.com</title>
  <defs>
    <linearGradient id="leaf" x1="0" y1="0" x2="0" y2="1">
      <stop offset="0%" stop-color="#7ed6df"/>
      <stop offset="100%" stop-color="#badc58"/>
    </linearGradient>
  </defs>
  <rect width="512" height="512" fill="transparent"/>
  <!-- pot -->
  <ellipse cx="256" cy="430" rx="140" ry="50" fill="#8d6e63"/>
  <path d="M116 180 h280 v250 a140 50 0 0 1 -280 0 z" fill="#a1887f"/>
  <!-- data pattern on pot -->
  <path d="M140 260 q30 -40 60 0 t60 0 t60 0 t60 0"
        stroke="#7ed6df" stroke-width="4" fill="none" opacity="0.6"/>
  <!-- leaves -->
  <path d="M256 180 c-60 -80 -10 -120 0 -140 c10 20 60 60 0 140 z" fill="url(#leaf)"/>
  <path d="M256 180 c60 -80 10 -120 0 -140 c-10 20 -60 60 0 140 z" fill="url(#leaf)"/>
  <!-- text -->
  <text x="50%" y="480" text-anchor="middle" font-size="40" font-family="Arial, Helvetica, sans-serif" fill="#7ed6df">DreamSeedAI.com</text>
  <text x="50%" y="505" text-anchor="middle" font-size="14" font-family="Arial, Helvetica, sans-serif" fill="#777">© DreamSeedAI.com</text>
</svg>
